<svg width="1200" height="280" viewBox="0 0 1200 280" fill="none" xmlns="http://www.w3.org/2000/svg">
  <defs>
    <linearGradient id="bg" x1="0" y1="0" x2="1200" y2="280" gradientUnits="userSpaceOnUse">
      <stop stop-color="#F8FAFC"/>
      <stop offset="1" stop-color="#EEF2FF"/>
    </linearGradient>
  </defs>
  <rect width="1200" height="280" rx="28" fill="url(#bg)"/>
  <rect x="32" y="32" width="1136" height="216" rx="22" fill="white" stroke="#E2E8F0"/>
  <text x="70" y="82" fill="#0F172A" font-family="Arial, sans-serif" font-size="28" font-weight="800">今日开源热点雷达</text>
  <text x="70" y="116" fill="#64748B" font-family="Arial, sans-serif" font-size="16">面向大众用户筛选：AI 工具、效率神器、学习资源、图片视频、投资加密与开发工具</text>
  <g>
    <rect x="70" y="154" width="130" height="46" rx="23" fill="#DBEAFE"/>
    <text x="92" y="184" fill="#1D4ED8" font-family="Arial, sans-serif" font-size="18" font-weight="700">AI工具</text>
    <rect x="220" y="154" width="130" height="46" rx="23" fill="#DCFCE7"/>
    <text x="242" y="184" fill="#15803D" font-family="Arial, sans-serif" font-size="18" font-weight="700">效率神器</text>
    <rect x="370" y="154" width="130" height="46" rx="23" fill="#FAE8FF"/>
    <text x="392" y="184" fill="#A21CAF" font-family="Arial, sans-serif" font-size="18" font-weight="700">图片视频</text>
    <rect x="520" y="154" width="130" height="46" rx="23" fill="#FEF3C7"/>
    <text x="542" y="184" fill="#B45309" font-family="Arial, sans-serif" font-size="18" font-weight="700">学习资源</text>
    <rect x="670" y="154" width="130" height="46" rx="23" fill="#FFE4E6"/>
    <text x="692" y="184" fill="#BE123C" font-family="Arial, sans-serif" font-size="18" font-weight="700">投资加密</text>
    <rect x="820" y="154" width="130" height="46" rx="23" fill="#E0F2FE"/>
    <text x="842" y="184" fill="#0369A1" font-family="Arial, sans-serif" font-size="18" font-weight="700">开发工具</text>
  </g>
  <text x="70" y="232" fill="#334155" font-family="Arial, sans-serif" font-size="17">每天自动生成 README 榜单、博客文章和小红书文案。</text>
</svg>
